# xmcd CD database file
#
# Track frame offsets:
#	150
#	23147
#	46060
#	71057
#	97826
#	127069
#	154396
#	183445
#	202824
#	226223
#	250816
#	276960
#
# Disc length: 4080 seconds
#
# Revision: 0
# Processed by: cddbd v1.5.2PL0 Copyright (c) Steve Scherf et al.
# Submitted via: CDex 1.70beta2
#
DISCID=9f0fee0c
DTITLE=Golding, William - Herr der Fliegen
DYEAR=2009
DGENRE=Hoerbuch
TTITLE0=29
TTITLE1=30
TTITLE2=31
TTITLE3=32
TTITLE4=33
TTITLE5=34
TTITLE6=35
TTITLE7=36
TTITLE8=37
TTITLE9=38
TTITLE10=39
TTITLE11=40
EXTD=YEAR: 2009
EXTT0=
EXTT1=
EXTT2=
EXTT3=
EXTT4=
EXTT5=
EXTT6=
EXTT7=
EXTT8=
EXTT9=
EXTT10=
EXTT11=
PLAYORDER=
